<svg width="110" height="110" fill="none" xmlns="http://www.w3.org/2000/svg"><circle cx="55" cy="55" r="55" fill="#F7F9FB"/><path d="M93.431 47.94a5.788 5.788 0 00-3.696-2.49c-1.853-.369-5.277-1.062-9.465-1.904l-3.371-.684v-1.483c0-2.947-2.143-5.35-4.776-5.35-.844 0-1.624.245-2.319.675-.544-2.272-2.379-3.938-4.565-3.938-1.028 0-1.985.376-2.758 1.008a5.862 5.862 0 00-.746-1.114c-.922-1.026-2.213-1.613-3.538-1.613-1.431 0-2.713.666-3.617 1.719-.026-.027-.053-.071-.08-.106-.939-1.043-2.195-1.613-3.529-1.613-2.59 0-4.723 2.183-4.908 4.955-.009.132-.018.263-.018.395v.237l-5.741-1.157a12.868 12.868 0 00-9.887-9.22c-4.092-.823-8.226.357-11.228 3.104-.608.558-.327 1.566.487 1.7l7.285 1.205a2.055 2.055 0 011.694 2.363l-1.284 7.757a2.057 2.057 0 01-2.365 1.691l-7.87-1.3c-.774-.128-1.367.66-1.048 1.376a12.827 12.827 0 009.228 7.376 12.88 12.88 0 0012.67-4.667l4.538.92a5.162 5.162 0 00-.807 2.773v5.762a5.64 5.64 0 002.107 4.395c.009 0 .009 0 .017.008l6.427 5.15c.72.517 1.361.93 1.958 1.271a4.758 4.758 0 00-.58 2.28v9.755c0 2.653 2.173 4.824 4.83 4.824h15.856c2.656 0 4.829-2.17 4.829-4.824V69.42a4.78 4.78 0 00-1.475-3.456 6.308 6.308 0 001.212-3.728v-7.516l10.536 2.132c.377.079.764.114 1.141.114 2.713 0 5.154-1.904 5.716-4.658a5.791 5.791 0 00-.86-4.369zm-30.299-9.824c0-1.473.966-2.719 2.108-2.719 1.14 0 2.107 1.246 2.107 2.72v6.745c0 1.473-.966 2.719-2.107 2.719-1.142 0-2.108-1.246-2.108-2.72v-6.745zm-7.235-1.718c0-1.474 1.053-2.72 2.3-2.72.588 0 1.15.263 1.572.738.473.526.728 1.228.728 1.982v6.746c0 1.473-1.045 2.71-2.291 2.719a5.249 5.249 0 00-.5-1.237c-.422-.755-1.01-1.5-1.81-1.947v-6.282zm-7.217 1.859v-1.859c0-.097 0-.185.009-.272.123-1.35 1.123-2.447 2.282-2.447.58 0 1.133.262 1.563.737.474.526.728 1.228.728 1.982v5.981c-.456.114-.939.299-1.466.588l-2.932 1.21a3.172 3.172 0 01-.185-1.034v-4.886h.001zM71.542 73.05a2.175 2.175 0 110-4.348 2.175 2.175 0 110 4.348zm2.723-18.329v7.517a3.72 3.72 0 01-.94 2.465 4.627 4.627 0 00-.991-.105H56.477a4.86 4.86 0 00-2.327.596c-.65-.325-1.387-.772-2.291-1.421l-6.375-5.114a2.994 2.994 0 01-1.132-2.343v-5.762c0-.895.457-1.72 1.194-2.166l.317-.123c0-.009 0-.009.008-.009l6.928-2.859.07-.026a.665.665 0 00.14-.07c1.274-.71 1.721-.597 2.397.613.237.413.352.851.352 1.325 0 .92-.483 1.763-1.256 2.202l-3.45 1.92s0 .01-.01.01c-.017.008-.026.017-.043.034a.898.898 0 00-.202.158.067.067 0 00-.035.017c0 .009-.009.017-.017.026a1.393 1.393 0 00-.255.386c-.008.017-.008.035-.017.052-.052.14-.088.29-.088.439v.061c.009.14.035.29.088.43.009.026.017.044.026.062.017.035.026.08.044.114.062.105.131.193.21.272 0 0 .01.008.01.017a.12.12 0 01.034.026c.097.088.202.166.316.22.009.008.026.008.035.017.105.052.22.08.342.105.01 0 .018.009.035.009 5.628.991 9.22 3.534 10.976 7.78.21.51.702.816 1.22.816.166 0 .342-.035.5-.106a1.31 1.31 0 00.72-1.71c-1.757-4.237-4.935-7.052-9.676-8.57l.519-.298a4.73 4.73 0 001.264-1.017l1.834.368h.01l9.771 1.982h.018l5.584 1.132v.528zm0-10.78v4.184c0 1.473-.984 2.719-2.142 2.719-1.159 0-2.142-1.246-2.142-2.72V41.38c0-1.473.983-2.719 2.142-2.719 1.158 0 2.142 1.246 2.142 2.72v2.56zm15.536 9.038a2.203 2.203 0 01-3.047-.614 2.198 2.198 0 01.614-3.044 2.213 2.213 0 013.047.613 2.195 2.195 0 01-.614 3.045z" fill="#F39000"/></svg>