<svg width="108" height="75" fill="none" xmlns="http://www.w3.org/2000/svg"><path d="M88.572 72.557V37.095c0-5.43-4.338-9.847-9.67-9.847h-9.08c-4.34 0-8.017 2.927-9.236 6.943-.294.972-1.128 1.742-2.143 1.742h-3.771a2 2 0 01-2-2v-5.07c0-5.429-4.336-9.845-9.668-9.845h-9.078c-5.33 0-9.667 4.416-9.667 9.844v41.694a2 2 0 01-2 2H1.222a1.222 1.222 0 000 2.444h105.556a1.222 1.222 0 100-2.444H88.573l-.001.001zm-18.75-42.865h9.08c4.008 0 7.27 3.321 7.27 7.404v33.461a2 2 0 01-2 2H64.55a2 2 0 01-2-2V37.095c0-4.082 3.263-7.403 7.272-7.403zM38.4 62.979v3.966a1.936 1.936 0 01-3.871 0v-3.966c0-4.546 3.631-8.244 8.095-8.244h2.213a1.97 1.97 0 110 3.942h-2.213c-2.33 0-4.224 1.929-4.224 4.302zm10.81-6.273a1.97 1.97 0 011.97-1.97h3.205a1.97 1.97 0 110 3.941H51.18a1.971 1.971 0 01-1.971-1.97zm7.146 4.414v.2a1.2 1.2 0 102.4 0v-9.174a1.2 1.2 0 00-1.2-1.2h-.528a.673.673 0 00-.672.673.673.673 0 01-.673.672h-1.17a1.842 1.842 0 01-1.841-1.841v-2.41a2 2 0 012-2h3.478a2 2 0 012 2v22.517a2 2 0 01-2 2h-3.478a2 2 0 01-2-2v-7.594c0-1.017.824-1.842 1.842-1.842h1.84l.002-.001zm1.794-22.743a2 2 0 012 2v1.218a2 2 0 01-2 2h-3.478a2 2 0 01-2-2v-1.218a2 2 0 012-2h3.478zm-31.49-9.515c0-4.08 3.26-7.4 7.266-7.4h9.078c4.007 0 7.268 3.32 7.268 7.4V51.76a.531.531 0 11-1.062 0v-.141a.673.673 0 00-.673-.673h-1.055a.673.673 0 00-.672.673.673.673 0 01-.673.672h-3.512c-5.786 0-10.495 4.795-10.495 10.687v5.296a.607.607 0 01-.607.606.607.607 0 00-.606.607v.615c0 .675.547 1.222 1.222 1.222h8.921c.675 0 1.222-.547 1.222-1.222v-.48a.741.741 0 00-.741-.742.741.741 0 01-.741-.74v-5.162c0-1.025.818-1.858 1.825-1.858h3.485a.7.7 0 01.7.7.7.7 0 00.7.699h1a.7.7 0 00.7-.7v-.168a.531.531 0 111.062 0v8.905a2 2 0 01-2 2H28.659a2 2 0 01-2-2V28.862zm19.967-1.181c.2.632.72 1.181 1.383 1.181.662 0 1.21-.542 1.087-1.193a6.369 6.369 0 00-1.908-3.469 6.15 6.15 0 00-2.97-1.534c-.662-.134-1.215.426-1.215 1.1 0 .676.562 1.204 1.2 1.42.502.17.968.447 1.366.818.493.46.855 1.04 1.057 1.677zm.183 17.837a1.2 1.2 0 002.4 0V32.406a1.2 1.2 0 00-2.4 0v13.112zm35.896-8.422v19.521a1.2 1.2 0 102.4 0V37.096a6.37 6.37 0 00-1.794-4.442c-.473-.487-1.25-.332-1.626.234-.366.552-.201 1.288.204 1.812.522.675.816 1.515.816 2.395zm0 26.579a1.2 1.2 0 102.4 0V61.82a1.2 1.2 0 10-2.4 0v1.855zM4.958 68.817h-.122a1.222 1.222 0 000 2.444h10.03c.674 0 1.221-.547 1.221-1.222v-.62a.602.602 0 00-.602-.602.602.602 0 01-.603-.602v-3.516a.98.98 0 01.98-.98.98.98 0 00.98-.98v-5.793a.98.98 0 00-.98-.98.98.98 0 01-.98-.98v-5.939c0-1.658 1.325-3.008 2.955-3.008h2.015c.345 0 .625.28.625.624 0 .345.28.625.624.625h.576a1.2 1.2 0 001.2-1.2v-9.846a1.2 1.2 0 00-1.2-1.2h-.754c-.246 0-.446.2-.446.445 0 .247-.2.447-.446.447h-2.194c-7.1 0-12.877 5.882-12.877 13.113v5.977c0 .52-.422.942-.942.942a.942.942 0 00-.942.942v5.87c0 .52.42.941.94.941s.941.421.941.94v4.157l.001.001zm7.523-2a2 2 0 01-2 2H9.357a2 2 0 01-2-2v-1.098a2 2 0 012-2h1.124a2 2 0 012 2v1.098zm-7.005-6.974c0-.792.641-1.433 1.432-1.433h6.1a1.433 1.433 0 110 2.865h-6.1a1.433 1.433 0 01-1.432-1.432zm1.882-10.796c0-5.882 4.701-10.67 10.478-10.67h.64a2 2 0 012 2v1.218a2 2 0 01-2 2h-.64c-2.952 0-5.355 2.446-5.355 5.452v4.919a2 2 0 01-2 2H9.357a2 2 0 01-2-2v-4.918zM92.47 61.53c0-.35.283-.634.633-.634 1.007 0 1.826.834 1.826 1.859v5.466a.661.661 0 01-.662.66.661.661 0 00-.66.662v.56c0 .676.546 1.223 1.221 1.223h8.92c.675 0 1.222-.547 1.222-1.222v-.536a.686.686 0 00-.686-.686.686.686 0 01-.685-.686v-5.442c0-5.892-4.71-10.686-10.496-10.686h-.072a.56.56 0 01-.561-.56.56.56 0 00-.561-.562h-.64a1.2 1.2 0 00-1.2 1.2v9.173a1.2 1.2 0 001.2 1.2h.39a.811.811 0 00.81-.811v-.178zm.633-7.019h.001c4.464.001 8.095 3.697 8.095 8.243v4.19a1.936 1.936 0 01-3.872 0v-4.19c0-2.372-1.894-4.303-4.225-4.303a.634.634 0 01-.633-.633v-2.99c0-.175.142-.317.317-.317h.317zM35.174 17.83h7.131a.965.965 0 00.966-.966v-.5a.979.979 0 00-.979-.979.986.986 0 01-.979-.979 1.001 1.001 0 01.995-1.01h12.024c.519 0 .94.42.94.94s.421.94.94.94h6.775c.52 0 .943-.422.943-.942s.42-.942.94-.943l4.2-.012a2 2 0 012.005 2v7.27a.969.969 0 01-.97.97.969.969 0 00-.968.969v.506c0 .535.434.968.969.968h.968v.001H78.2a.97.97 0 00.969-.97v-.505a.97.97 0 00-.97-.97.97.97 0 01-.97-.969v-9.275c0-3.442-2.751-6.244-6.131-6.244h-5.993a1.175 1.175 0 01-1.175-1.175c0-.649-.526-1.175-1.175-1.175H61.44a.639.639 0 01-.638-.638.638.638 0 00-.639-.639H59.04a.639.639 0 00-.638.639.638.638 0 01-.639.638h-1.316c-.649 0-1.175.526-1.175 1.175s-.526 1.175-1.175 1.175h-12.79c-3.381 0-6.131 2.8-6.131 6.244v1.043a.968.968 0 01-.968.968.968.968 0 00-.968.968v.255c0 .674.547 1.221 1.222 1.222h.712zm35.922-8.257h.001c2.058 0 3.731 1.704 3.731 3.8v9.567a.677.677 0 01-1.354 0v-9.567c0-1.336-1.067-2.421-2.378-2.421h-6.478a.69.69 0 010-1.378h6.478v-.001zm-13.424-.421a1.929 1.929 0 113.858 0v1.75a1.929 1.929 0 11-3.858 0v-1.75zm-20.098 4.22c0-2.095 1.674-3.8 3.731-3.8h13.278a.69.69 0 110 1.379H41.306c-1.304 0-2.366 1.086-2.366 2.42V14.7a.683.683 0 01-1.366 0v-1.327zM65.57 1.222C65.57.548 65.022 0 64.347 0h-9.395a1.222 1.222 0 000 2.444h9.395c.675 0 1.222-.547 1.222-1.222z" fill="#F39000"/></svg>